<svg width="22" height="22" viewBox="0 0 22 22" fill="none" xmlns="http://www.w3.org/2000/svg">
<path d="M10.75 20.75C16.2728 20.75 20.75 16.2728 20.75 10.75C20.75 5.22715 16.2728 0.75 10.75 0.75C5.22715 0.75 0.75 5.22715 0.75 10.75C0.75 16.2728 5.22715 20.75 10.75 20.75Z" stroke="#49987A" stroke-width="1.5"/>
<path d="M10.75 14.75C12.9591 14.75 14.75 12.9591 14.75 10.75C14.75 8.54086 12.9591 6.75 10.75 6.75C8.54086 6.75 6.75 8.54086 6.75 10.75C6.75 12.9591 8.54086 14.75 10.75 14.75Z" stroke="#49987A" stroke-width="1.5"/>
<path d="M13.75 7.75L17.75 3.75M3.75 17.75L7.75 13.75M7.75 7.75L3.75 3.75M17.75 17.75L13.75 13.75" stroke="#49987A" stroke-width="1.5"/>
</svg>
