<svg width="28" height="26" viewBox="0 0 28 26" fill="none" xmlns="http://www.w3.org/2000/svg">
<path fill-rule="evenodd" clip-rule="evenodd" d="M13.6454 0C14.2451 0.00110345 14.8278 0.207677 15.3033 0.587773C15.7788 0.967869 16.1206 1.50031 16.2759 2.10275C16.4312 2.70519 16.3913 3.34406 16.1624 3.92055C15.9335 4.49705 15.5284 4.97905 15.0096 5.29201V5.67507H19.1022C20.5494 5.67507 21.9374 6.27298 22.9608 7.33727C23.9841 8.40155 24.559 9.84503 24.559 11.3501V11.4211C25.3289 11.5853 26.0206 12.0209 26.5173 12.6542C27.0141 13.2875 27.2854 14.0798 27.2854 14.8971C27.2854 15.7144 27.0141 16.5066 26.5173 17.14C26.0206 17.7733 25.3289 18.2088 24.559 18.3731V19.8628C24.559 21.3679 23.9841 22.8114 22.9608 23.8756C21.9374 24.9399 20.5494 25.5378 19.1022 25.5378H8.18862C6.74138 25.5378 5.35343 24.9399 4.33008 23.8756C3.30673 22.8114 2.73182 21.3679 2.73182 19.8628V18.3731C1.96085 18.2102 1.26771 17.7752 0.769842 17.1417C0.271975 16.5083 0 15.7152 0 14.8971C0 14.0789 0.271975 13.2859 0.769842 12.6524C1.26771 12.0189 1.96085 11.5839 2.73182 11.4211V11.3501C2.73182 9.84503 3.30673 8.40155 4.33008 7.33727C5.35343 6.27298 6.74138 5.67507 8.18862 5.67507H12.2812V5.29201C11.7625 4.97905 11.3573 4.49705 11.1284 3.92055C10.8995 3.34406 10.8596 2.70519 11.0149 2.10275C11.1702 1.50031 11.512 0.967869 11.9875 0.587773C12.463 0.207677 13.0457 0.00110345 13.6454 0ZM9.55282 12.7689C9.19101 12.7689 8.84402 12.9184 8.58818 13.1845C8.33235 13.4505 8.18862 13.8114 8.18862 14.1877V17.0252C8.18862 17.4015 8.33235 17.7624 8.58818 18.0284C8.84402 18.2945 9.19101 18.444 9.55282 18.444C9.91463 18.444 10.2616 18.2945 10.5175 18.0284C10.7733 17.7624 10.917 17.4015 10.917 17.0252V14.1877C10.917 13.8114 10.7733 13.4505 10.5175 13.1845C10.2616 12.9184 9.91463 12.7689 9.55282 12.7689ZM17.738 12.7689C17.3762 12.7689 17.0292 12.9184 16.7734 13.1845C16.5175 13.4505 16.3738 13.8114 16.3738 14.1877V17.0252C16.3738 17.4015 16.5175 17.7624 16.7734 18.0284C17.0292 18.2945 17.3762 18.444 17.738 18.444C18.0998 18.444 18.4468 18.2945 18.7027 18.0284C18.9585 17.7624 19.1022 17.4015 19.1022 17.0252V14.1877C19.1022 13.8114 18.9585 13.4505 18.7027 13.1845C18.4468 12.9184 18.0998 12.7689 17.738 12.7689Z" fill="#49987A"/>
</svg>
