<svg width="22" height="24" viewBox="0 0 22 24" fill="none" xmlns="http://www.w3.org/2000/svg">
<path d="M0 21.1505V8.86958C0 8.43747 0.0968828 8.02811 0.290649 7.64148C0.484415 7.25486 0.751413 6.93647 1.09164 6.6863L9.27894 0.54582C9.75654 0.18194 10.3024 0 10.9164 0C11.5305 0 12.0763 0.18194 12.5539 0.54582L20.7412 6.6863C21.0823 6.93647 21.3498 7.25486 21.5435 7.64148C21.7373 8.02811 21.8337 8.43747 21.8328 8.86958V21.1505C21.8328 21.901 21.5654 22.5437 21.0305 23.0786C20.4956 23.6135 19.8533 23.8805 19.1037 23.8796H15.0101C14.6234 23.8796 14.2996 23.7486 14.0385 23.4866C13.7774 23.2247 13.6464 22.9008 13.6455 22.5151V15.6923C13.6455 15.3057 13.5145 14.9819 13.2525 14.7208C12.9905 14.4597 12.6667 14.3287 12.281 14.3278H9.55185C9.16523 14.3278 8.84138 14.4588 8.58029 14.7208C8.31921 14.9828 8.18821 15.3066 8.1873 15.6923V22.5151C8.1873 22.9017 8.05631 23.226 7.79431 23.488C7.53232 23.75 7.20847 23.8805 6.82275 23.8796H2.7291C1.9786 23.8796 1.33635 23.6126 0.802356 23.0786C0.268361 22.5446 0.0009097 21.9019 0 21.1505Z" fill="#49987A"/>
</svg>
