<svg width="18" height="18" viewBox="0 0 18 18" fill="none" xmlns="http://www.w3.org/2000/svg">
<path d="M15.6001 18C16.1501 18 16.6208 17.8043 17.0121 17.413C17.4034 17.0217 17.5994 16.5507 17.6001 16V2C17.6001 1.45 17.4041 0.979333 17.0121 0.588C16.6201 0.196667 16.1494 0.000666667 15.6001 0H9.6001C9.31676 0 9.0791 0.0960001 8.8871 0.288C8.6951 0.48 8.59943 0.717333 8.6001 1C8.60076 1.28267 8.69676 1.52033 8.8881 1.713C9.07943 1.90567 9.31676 2.00133 9.6001 2H15.6001V16H9.6001C9.31676 16 9.0791 16.096 8.8871 16.288C8.6951 16.48 8.59943 16.7173 8.6001 17C8.60076 17.2827 8.69676 17.5203 8.8881 17.713C9.07943 17.9057 9.31676 18.0013 9.6001 18H15.6001ZM3.4251 10H10.6001C10.8834 10 11.1208 9.904 11.3121 9.712C11.5034 9.52 11.5994 9.28267 11.6001 9C11.6008 8.71733 11.5048 8.48 11.3121 8.288C11.1194 8.096 10.8821 8 10.6001 8H3.4251L5.3001 6.125C5.48343 5.94167 5.5751 5.71667 5.5751 5.45C5.5751 5.18333 5.48343 4.95 5.3001 4.75C5.11676 4.55 4.88343 4.44567 4.6001 4.437C4.31676 4.42833 4.0751 4.52433 3.8751 4.725L0.300098 8.3C0.100098 8.5 9.72748e-05 8.73333 9.72748e-05 9C9.72748e-05 9.26667 0.100098 9.5 0.300098 9.7L3.8751 13.275C4.0751 13.475 4.31243 13.571 4.5871 13.563C4.86176 13.555 5.09943 13.4507 5.3001 13.25C5.48343 13.05 5.57076 12.8127 5.5621 12.538C5.55343 12.2633 5.45776 12.034 5.2751 11.85L3.4251 10Z" fill="#49987A"/>
</svg>
