<svg width="18" height="26" viewBox="0 0 18 26" fill="none" xmlns="http://www.w3.org/2000/svg">
<path d="M8.92206 0C12.6136 0 15.6136 3.18031 15.6136 7.11386C15.6136 12.4463 8.92206 20.3253 8.92206 20.3253C8.92206 20.3253 2.23052 12.4463 2.23052 7.11386C2.23052 3.18031 5.23056 0 8.92206 0ZM8.92206 4.78242C8.33049 4.78242 7.76315 5.03436 7.34485 5.48279C6.92655 5.93123 6.69155 6.53945 6.69155 7.17364C6.69155 7.80783 6.92655 8.41604 7.34485 8.86448C7.76315 9.31292 8.33049 9.56485 8.92206 9.56485C9.51363 9.56485 10.081 9.31292 10.4993 8.86448C10.9176 8.41604 11.1526 7.80783 11.1526 7.17364C11.1526 6.53945 10.9176 5.93123 10.4993 5.48279C10.081 5.03436 9.51363 4.78242 8.92206 4.78242ZM17.8441 20.3253C17.8441 22.9676 13.8515 25.1077 8.92206 25.1077C3.99262 25.1077 0 22.9676 0 20.3253C0 18.783 1.36062 17.408 3.46845 16.5352L4.18222 17.6232C2.97774 18.1613 2.23052 18.9025 2.23052 19.7275C2.23052 21.3774 5.23056 22.7165 8.92206 22.7165C12.6136 22.7165 15.6136 21.3774 15.6136 19.7275C15.6136 18.9025 14.8664 18.1613 13.6619 17.6232L14.3757 16.5352C16.4835 17.408 17.8441 18.783 17.8441 20.3253Z" fill="#49987A"/>
</svg>
