<svg width="18" height="20" viewBox="0 0 18 20" fill="none" xmlns="http://www.w3.org/2000/svg">
<path d="M8.93816 0C7.08165 0 5.30117 0.771873 3.98842 2.14582C2.67566 3.51976 1.93816 5.38322 1.93816 7.32627V11.0187C1.93831 11.1811 1.90236 11.3412 1.83316 11.4865L0.116163 15.0796C0.0322892 15.2551 -0.00731514 15.4502 0.00111129 15.6462C0.00953771 15.8423 0.0657151 16.0328 0.164308 16.1998C0.262901 16.3667 0.400635 16.5045 0.56443 16.6001C0.728224 16.6956 0.912641 16.7458 1.10016 16.7458H16.7762C16.9637 16.7458 17.1481 16.6956 17.3119 16.6001C17.4757 16.5045 17.6134 16.3667 17.712 16.1998C17.8106 16.0328 17.8668 15.8423 17.8752 15.6462C17.8836 15.4502 17.844 15.2551 17.7602 15.0796L16.0442 11.4865C15.9746 11.3413 15.9383 11.1812 15.9382 11.0187V7.32627C15.9382 5.38322 15.2007 3.51976 13.8879 2.14582C12.5752 0.771873 10.7947 0 8.93816 0ZM8.93816 19.8856C8.31751 19.8859 7.71204 19.6848 7.20518 19.3099C6.69833 18.935 6.31505 18.4048 6.10816 17.7924H11.7682C11.5613 18.4048 11.178 18.935 10.6711 19.3099C10.1643 19.6848 9.55882 19.8859 8.93816 19.8856Z" fill="#49987A"/>
</svg>
