<svg width="15" height="15" viewBox="0 0 15 15" fill="none" xmlns="http://www.w3.org/2000/svg">
<path d="M0.5 12.1667C0.5 11.2826 0.851189 10.4348 1.47631 9.80964C2.10143 9.18452 2.94928 8.83333 3.83333 8.83333H10.5C11.3841 8.83333 12.2319 9.18452 12.857 9.80964C13.4821 10.4348 13.8333 11.2826 13.8333 12.1667C13.8333 12.6087 13.6577 13.0326 13.3452 13.3452C13.0326 13.6577 12.6087 13.8333 12.1667 13.8333H2.16667C1.72464 13.8333 1.30072 13.6577 0.988155 13.3452C0.675595 13.0326 0.5 12.6087 0.5 12.1667Z" stroke="#49987A" stroke-linejoin="round"/>
<path d="M7.1665 5.5C8.54722 5.5 9.6665 4.38071 9.6665 3C9.6665 1.61929 8.54722 0.5 7.1665 0.5C5.78579 0.5 4.6665 1.61929 4.6665 3C4.6665 4.38071 5.78579 5.5 7.1665 5.5Z" stroke="#49987A"/>
</svg>
