<svg width="26" height="27" viewBox="0 0 26 27" fill="none" xmlns="http://www.w3.org/2000/svg">
<mask id="mask0_643_435" style="mask-type:luminance" maskUnits="userSpaceOnUse" x="0" y="0" width="26" height="27">
<path d="M19.87 7.70709C20.6057 8.80411 21.1038 10.0541 21.33 11.3707H24.0924V14.6453H21.33C21.1038 15.962 20.6057 17.212 19.87 18.309L21.8242 20.3414L19.5975 22.6571L17.6433 20.6247C16.5884 21.3899 15.3866 21.908 14.1205 22.1432V25.0161H10.9719V22.1432C9.70585 21.908 8.50396 21.3899 7.44913 20.6247L5.49494 22.6571L3.26825 20.3414L5.22245 18.309C4.48671 17.212 3.98858 15.962 3.76243 14.6453H1V11.3707H3.76243C3.98858 10.0541 4.48671 8.80411 5.22245 7.70709L3.26825 5.67473L5.49494 3.35898L7.44913 5.39134C8.50396 4.62618 9.70585 4.10812 10.9719 3.87292V1H14.1205V3.87292C15.3866 4.10812 16.5884 4.62618 17.6433 5.39134L19.5975 3.35898L21.8242 5.67473L19.87 7.70709Z" fill="#49987A" stroke="white" stroke-width="2" stroke-linejoin="round"/>
<path d="M12.5462 16.0101C13.3118 16.0101 14.046 15.6938 14.5873 15.1308C15.1287 14.5678 15.4328 13.8042 15.4328 13.0081C15.4328 12.2119 15.1287 11.4483 14.5873 10.8853C14.046 10.3223 13.3118 10.006 12.5462 10.006C11.7807 10.006 11.0465 10.3223 10.5051 10.8853C9.96379 11.4483 9.65967 12.2119 9.65967 13.0081C9.65967 13.8042 9.96379 14.5678 10.5051 15.1308C11.0465 15.6938 11.7807 16.0101 12.5462 16.0101Z" fill="#49987A" stroke="black" stroke-width="2" stroke-linejoin="round"/>
</mask>
<g mask="url(#mask0_643_435)">
<path d="M-1.30908 -1.40161H26.4018V27.4177H-1.30908V-1.40161Z" fill="#49987A"/>
</g>
</svg>
