<svg width="33" height="14" viewBox="0 0 33 14" fill="none" xmlns="http://www.w3.org/2000/svg">
<path fill-rule="evenodd" clip-rule="evenodd" d="M3.37759e-06 3.79423C3.37759e-06 1.69828 1.69828 3.13379e-06 3.79424 3.13379e-06H5.81767C6.66066 -0.00104265 7.48318 0.259681 8.17164 0.746167C8.86009 1.23265 9.38051 1.9209 9.66103 2.71585C9.72507 2.89694 9.75283 3.08887 9.7427 3.28069C9.73258 3.4725 9.68477 3.66044 9.60201 3.83378C9.51925 4.00712 9.40316 4.16247 9.26036 4.29094C9.11757 4.41941 8.95087 4.5185 8.76978 4.58255C8.58869 4.6466 8.39676 4.67436 8.20494 4.66423C8.01312 4.65411 7.82518 4.6063 7.65184 4.52354C7.4785 4.44078 7.32316 4.32469 7.19469 4.18189C7.06621 4.0391 6.96712 3.8724 6.90307 3.69131C6.82432 3.46648 6.67747 3.27179 6.48294 3.13428C6.28842 2.99677 6.05589 2.92328 5.81767 2.92404H3.79424C3.57839 2.9221 3.36953 3.00046 3.20821 3.14389C3.0469 3.28731 2.94465 3.48558 2.92133 3.70017C2.898 3.91476 2.95527 4.13036 3.082 4.30509C3.20873 4.47983 3.39588 4.60123 3.6071 4.64571L6.68786 5.31941C7.66828 5.53589 8.53436 6.10651 9.12015 6.92195C9.70595 7.73738 9.97027 8.74029 9.86248 9.73852C9.75469 10.7368 9.28236 11.6601 8.53599 12.3317C7.78963 13.0033 6.8217 13.3759 5.81767 13.3781H4.07494C2.29713 13.3781 0.790663 12.2412 0.231587 10.6599C0.167538 10.4788 0.139784 10.2869 0.149909 10.095C0.160035 9.90322 0.207843 9.71528 0.290603 9.54194C0.373363 9.3686 0.489454 9.21326 0.632249 9.08478C0.775043 8.95631 0.941744 8.85722 1.12283 8.79317C1.30392 8.72912 1.49586 8.70136 1.68767 8.71149C1.87949 8.72162 2.06743 8.76942 2.24077 8.85218C2.41411 8.93494 2.56945 9.05103 2.69793 9.19383C2.8264 9.33662 2.92549 9.50332 2.98954 9.68441C3.0683 9.90924 3.21514 10.1039 3.40967 10.2414C3.60419 10.379 3.83673 10.4524 4.07494 10.4517H5.81767C6.10215 10.4526 6.37689 10.3481 6.58887 10.1584C6.80085 9.96863 6.93504 9.70711 6.96557 9.42427C6.99609 9.14142 6.92077 8.8573 6.75415 8.62671C6.58753 8.39613 6.34141 8.23542 6.06329 8.17561L2.98252 7.50191C2.13665 7.31755 1.37941 6.84911 0.836781 6.17455C0.294151 5.49999 -0.00115202 4.65996 3.37759e-06 3.79423ZM22.6484 3.79423C22.6484 1.69828 24.3467 3.13379e-06 26.4427 3.13379e-06H28.4661C29.3091 -0.00104265 30.1316 0.259681 30.8201 0.746167C31.5085 1.23265 32.0289 1.9209 32.3095 2.71585C32.3735 2.89694 32.4013 3.08887 32.3911 3.28069C32.381 3.4725 32.3332 3.66044 32.2504 3.83378C32.1677 4.00712 32.0516 4.16247 31.9088 4.29094C31.766 4.41941 31.5993 4.5185 31.4182 4.58255C31.2371 4.6466 31.0452 4.67436 30.8534 4.66423C30.6616 4.65411 30.4736 4.6063 30.3003 4.52354C30.1269 4.44078 29.9716 4.32469 29.8431 4.18189C29.7146 4.0391 29.6156 3.8724 29.5515 3.69131C29.4727 3.46648 29.3259 3.27179 29.1314 3.13428C28.9368 2.99677 28.7043 2.92328 28.4661 2.92404H26.4427C26.2268 2.9221 26.018 3.00046 25.8566 3.14389C25.6953 3.28731 25.5931 3.48558 25.5698 3.70017C25.5464 3.91476 25.6037 4.13036 25.7304 4.30509C25.8572 4.47983 26.0443 4.60123 26.2555 4.64571L29.3363 5.31941C30.321 5.53132 31.1923 6.10039 31.7821 6.91683C32.3719 7.73327 32.6385 8.73923 32.5303 9.74062C32.4222 10.742 31.947 11.6679 31.1965 12.3396C30.446 13.0113 29.4733 13.3812 28.4661 13.3781H26.7234C24.9456 13.3781 23.4391 12.2412 22.88 10.6599C22.816 10.4788 22.7882 10.2869 22.7983 10.095C22.8085 9.90322 22.8563 9.71528 22.939 9.54194C23.1062 9.19186 23.4055 8.92252 23.7713 8.79317C24.137 8.66381 24.5391 8.68504 24.8892 8.85218C25.2393 9.01932 25.5086 9.31869 25.638 9.68441C25.7167 9.90924 25.8636 10.1039 26.0581 10.2414C26.2526 10.379 26.4852 10.4524 26.7234 10.4517H28.4661C28.7506 10.4526 29.0253 10.3481 29.2373 10.1584C29.4493 9.96863 29.5835 9.70711 29.614 9.42427C29.6445 9.14142 29.5692 8.8573 29.4026 8.62671C29.236 8.39613 28.9898 8.23542 28.7117 8.17561L25.6333 7.50191C24.787 7.31801 24.0292 6.84978 23.4861 6.17517C22.943 5.50056 22.6474 4.66028 22.6484 3.79423ZM14.2506 4.14512C14.2506 3.47142 14.7956 2.92404 15.4693 2.92404H17.0717C17.7477 2.92404 18.2928 3.47142 18.2928 4.14512V9.2306C18.2937 9.39133 18.2628 9.55064 18.2018 9.69934C18.1408 9.84804 18.0509 9.98317 17.9374 10.0969C17.8238 10.2107 17.6888 10.3008 17.5403 10.3621C17.3917 10.4234 17.2324 10.4546 17.0717 10.454H15.4693C15.3086 10.4546 15.1494 10.4234 15.0008 10.3621C14.8522 10.3008 14.7172 10.2107 14.6037 10.0969C14.4901 9.98317 14.4003 9.84804 14.3393 9.69934C14.2783 9.55064 14.2473 9.39133 14.2483 9.2306L14.2506 4.14512ZM15.4693 3.13379e-06C13.1816 3.13379e-06 11.3242 1.85501 11.3242 4.14512V9.2306C11.3242 11.523 13.1816 13.3781 15.4693 13.3781H17.0717C19.3618 13.3781 21.2168 11.5207 21.2168 9.2306V4.14512C21.2168 1.85501 19.3618 3.13379e-06 17.0717 3.13379e-06H15.4693Z" fill="#49987A"/>
</svg>
